<svg xmlns="http://www.w3.org/2000/svg" height="800" width="1200" class="jsx-2259896579 jsx-261554344" viewBox="-70.051215 -21.25 607.11053 127.5"><g fill="none" fill-rule="evenodd"><g transform="translate(-.0004 20.5183) scale(3.69565)" fill-rule="nonzero"><path d="M2.62 12.627a2.63 2.63 0 01-2.292-1.33A2.543 2.543 0 01.4 8.679l4.72-7.412A2.632 2.632 0 017.45.001a2.627 2.627 0 012.255 1.39c.44.832.385 1.833-.142 2.614l-4.717 7.412a2.631 2.631 0 01-2.226 1.21z" fill="#f62b54"/><path d="M10.716 12.627c-.952 0-1.828-.509-2.288-1.327A2.535 2.535 0 018.5 8.689l4.711-7.395A2.628 2.628 0 0115.543.001c.96.021 1.83.558 2.27 1.398.437.84.373 1.847-.17 2.626l-4.71 7.395a2.627 2.627 0 01-2.217 1.207z" fill="#fc0"/><ellipse ry="2.379" rx="2.43" cy="10.31" cx="18.631" fill="#00ca72"/></g><path d="M458.9886 50.3385c2.7126 0 4.335 1.9291 4.335 5.0889v10.8283h3.6845v-11.076c0-5.3734-2.5315-8.4888-7.2915-8.4888-1.8626 0-4.8191.51-6.582 3.9358a6.035 6.035 0 00-4.941-3.7326 8.5 8.5 0 00-2.0696-.122c-1.5152.122-4.213 1.0644-5.222 3.2005v-2.8715h-3.6882v19.1546h3.6882V55.9189c0-4.0209 2.6313-5.5804 5.2663-5.5804 2.4687 0 4.0911 1.8885 4.0911 5.0482v10.869h3.6661V55.9189c0-3.2004 1.9218-5.6174 5.063-5.5804zm-35.312 12.7167c1.6852.037 3.3113-.6356 4.4902-1.8552 1.1826-1.2196 1.8109-2.879 1.748-4.5826 0-3.8583-2.8382-6.279-6.2382-6.279-3.4037 0-6.2383 2.4207-6.2383 6.279-.0665 1.7.5618 3.3556 1.737 4.5715 1.1752 1.2196 2.794 1.8959 4.4717 1.8663zm0 3.5922c-5.3883 0-9.8859-3.9802-9.8859-10.0522 0-6.072 4.4976-9.9265 9.8859-9.9265 5.3883 0 9.9228 3.8546 9.9228 9.9265 0 6.072-4.5604 10.0707-9.9487 10.0707zm-28.863-10.0522l-.037.0222c0-6.072 4.6159-9.9265 10.041-9.9487a9.738 9.738 0 017.2916 3.0748l-2.794 2.38a6.2974 6.2974 0 00-4.4975-1.8035c-3.4 0-6.3565 2.4207-6.3565 6.2752 0 2.6055 1.5484 4.9522 3.9247 5.95 2.3763.9978 5.1111.4435 6.9294-1.397l2.8346 2.38a9.7972 9.7972 0 01-7.3322 3.1192c-5.3846 0-10.0041-3.9802-10.0041-10.0522zm-11.8003 5.9833a2.55 2.55 0 012.5205-2.5796 2.55 2.55 0 012.5204 2.5796 2.55 2.55 0 01-2.5204 2.4206 2.55 2.55 0 01-2.5205-2.4206z" fill="#333" fill-rule="nonzero"/><path d="M393.095 22.7504h-13.1232l-9.1985 23.715-9.1504-23.715h-13.1233l15.9542 37.474L354.5309 85h13.0272zM313.2839 43.594c0 5.987 5.233 9.9265 10.3737 9.9265 5.052 0 10.0152-3.666 10.0152-9.9302 0-6.2641-4.9633-9.9339-10.0152-9.9339-5.1407 0-10.3737 3.9433-10.3737 9.934zm20.3889 20.9248v-4.7415c-2.6609 4.0282-8.8696 5.5508-12.0552 5.5508-10.5474 0-21.0985-8.3152-21.0985-21.7378 0-13.4189 10.5474-21.7341 21.0985-21.7341 2.6571 0 8.8658.887 12.0552 5.5435v-4.6344h12.2326v41.7609l-12.2326-.0037zm-36.635 0H284.805V59.33c-2.0437 3.8435-6.9996 6.083-12.144 6.083-10.6397 0-20.0378-8.4963-20.0378-21.6528 0-13.4041 9.398-21.9115 20.0379-21.9115 5.137 0 10.1076 2.1435 12.1439 5.9906V0h12.2326zm-12.4988-21.021c0-6.2604-4.5198-9.9302-9.5718-9.9302-5.233 0-9.579 3.9359-9.579 9.9302 0 6.1865 4.346 10.104 9.5753 10.104 5.148.0073 9.5755-4.1096 9.5755-10.104zm-62.1609-1.0791c0-6.3491 3.2818-8.4963 7.6241-8.4963 4.165 0 7.1807 2.7717 7.1807 8.3152v22.2737h12.3213v-24.953c0-11.8926-5.854-17.7096-15.1633-17.7096-4.8745 0-9.749 2.7717-11.9665 6.9774v-6.0757h-12.3139v41.761h12.3176zM185.041 65.2283c-11.7004 0-21.4606-8.585-21.4606-21.7342 0-13.1565 9.7491-21.6565 21.4606-21.6565 11.7116 0 21.5457 8.5 21.5457 21.6565 0 13.1566-9.8452 21.7379-21.5457 21.7379zm0-12.1587c5.137 0 9.398-3.7622 9.398-9.5718 0-5.6358-4.2573-9.483-9.398-9.483a9.1209 9.1209 0 00-6.6595 2.7385 9.2872 9.2872 0 00-2.6498 6.7445c.0037 5.817 4.2574 9.5718 9.3093 9.5718zM141.4914 33.926c3.6328 0 6.8258 2.8641 6.8258 8.3152v22.2774H160.55V40.8c0-12.6096-6.1311-18.9587-15.9579-18.9587-2.9195 0-8.4187.887-12.41 7.4209-2.306-4.8302-6.7372-7.3359-13.2858-7.3359a11.8372 11.8372 0 00-10.8135 6.8887v-6.0609H95.754V64.515h12.3176V42.4187c0-6.3491 3.4591-8.4963 7.1806-8.4963 3.5479 0 6.7335 2.7717 6.826 8.0491V64.515h12.3212V42.4187c0-6.072 3.193-8.489 7.092-8.489z" fill="#333"/></g></svg>